<svg width="237" height="251" viewBox="0 0 237 251" fill="none" xmlns="http://www.w3.org/2000/svg">
<g opacity="0.39967">
<mask id="mask0_0_7" style="mask-type:luminance" maskUnits="userSpaceOnUse" x="0" y="88" width="136" height="109">
<path fill-rule="evenodd" clip-rule="evenodd" d="M0.907104 183.886L10.8895 196.124L135.342 95.1369L118.931 88.124L0.907104 183.886Z" fill="white"/>
</mask>
<g mask="url(#mask0_0_7)">
<path fill-rule="evenodd" clip-rule="evenodd" d="M119.321 201.75C118.947 201.304 118.604 200.825 118.193 200.415C76.0084 158.341 33.8197 116.271 -8.3675 74.1984C-8.70901 73.8564 -9.01879 73.4827 -9.34216 73.124H-1.19879C-0.863319 73.5339 -0.559586 73.9754 -0.186341 74.3461C35.7086 110.149 71.6126 145.943 107.508 181.744C114.176 188.396 120.813 195.081 127.465 201.75H119.321Z" fill="#231F20"/>
</g>
<mask id="mask1_0_7" style="mask-type:luminance" maskUnits="userSpaceOnUse" x="0" y="88" width="136" height="109">
<path fill-rule="evenodd" clip-rule="evenodd" d="M0.907104 183.886L10.8895 196.124L135.342 95.1369L118.931 88.124L0.907104 183.886Z" fill="white"/>
</mask>
<g mask="url(#mask1_0_7)">
<path fill-rule="evenodd" clip-rule="evenodd" d="M135.608 201.75C135.158 201.227 134.739 200.671 134.251 200.185C92.1817 158.225 50.1063 116.27 8.03397 74.3129C7.65317 73.9332 7.30712 73.5218 6.94446 73.124H15.0878C15.5381 73.6484 15.9582 74.2044 16.4463 74.6911C58.4764 116.613 100.512 158.531 142.546 200.45C142.964 200.867 143.349 201.316 143.751 201.75H135.608Z" fill="#231F20"/>
</g>
<mask id="mask2_0_7" style="mask-type:luminance" maskUnits="userSpaceOnUse" x="0" y="88" width="136" height="109">
<path fill-rule="evenodd" clip-rule="evenodd" d="M0.907104 183.886L10.8895 196.124L135.342 95.1369L118.931 88.124L0.907104 183.886Z" fill="white"/>
</mask>
<g mask="url(#mask2_0_7)">
<path fill-rule="evenodd" clip-rule="evenodd" d="M151.895 201.75C151.482 201.265 151.101 200.748 150.652 200.299C108.506 158.263 66.3535 116.232 24.2041 74.1984C23.8626 73.8579 23.5543 73.4827 23.231 73.124H31.3743C31.7098 73.5339 32.0135 73.9754 32.3868 74.3476C68.3966 110.265 104.414 146.175 140.422 182.092C146.977 188.629 153.501 195.197 160.038 201.75H151.895Z" fill="#231F20"/>
</g>
<mask id="mask3_0_7" style="mask-type:luminance" maskUnits="userSpaceOnUse" x="0" y="88" width="136" height="109">
<path fill-rule="evenodd" clip-rule="evenodd" d="M0.907104 183.886L10.8895 196.124L135.342 95.1369L118.931 88.124L0.907104 183.886Z" fill="white"/>
</mask>
<g mask="url(#mask3_0_7)">
<path fill-rule="evenodd" clip-rule="evenodd" d="M168.181 201.75C167.768 201.265 167.389 200.747 166.939 200.299C124.832 158.3 82.7171 116.307 40.607 74.3129C40.2262 73.9332 39.8801 73.5218 39.5175 73.124C42.2314 73.124 44.9469 73.124 47.6608 73.124C48.1111 73.6484 48.5297 74.2044 49.0178 74.6911C91.0479 116.613 133.084 158.531 175.117 200.45C175.536 200.867 175.922 201.316 176.324 201.75H168.181Z" fill="#231F20"/>
</g>
<mask id="mask4_0_7" style="mask-type:luminance" maskUnits="userSpaceOnUse" x="0" y="88" width="136" height="109">
<path fill-rule="evenodd" clip-rule="evenodd" d="M0.907104 183.886L10.8895 196.124L135.342 95.1369L118.931 88.124L0.907104 183.886Z" fill="white"/>
</mask>
<g mask="url(#mask4_0_7)">
<path fill-rule="evenodd" clip-rule="evenodd" d="M184.468 201.75C184.093 201.304 183.75 200.825 183.339 200.415C141.155 158.341 98.9658 116.271 56.7786 74.1984C56.4371 73.8564 56.1273 73.4827 55.804 73.124H63.9473C64.2828 73.5339 64.5865 73.9739 64.9598 74.3461C100.855 110.149 136.759 145.941 172.654 181.744C179.322 188.396 185.959 195.081 192.611 201.75H184.468Z" fill="#231F20"/>
</g>
<mask id="mask5_0_7" style="mask-type:luminance" maskUnits="userSpaceOnUse" x="0" y="88" width="136" height="109">
<path fill-rule="evenodd" clip-rule="evenodd" d="M0.907104 183.886L10.8895 196.124L135.342 95.1369L118.931 88.124L0.907104 183.886Z" fill="white"/>
</mask>
<g mask="url(#mask5_0_7)">
<path fill-rule="evenodd" clip-rule="evenodd" d="M200.754 201.75C200.304 201.227 199.885 200.671 199.397 200.185C157.328 158.225 115.252 116.27 73.1801 74.3129C72.7993 73.9332 72.4532 73.5218 72.0906 73.124H80.234C80.6465 73.6107 81.0273 74.1276 81.4776 74.5766C122.849 115.84 164.223 157.098 205.603 198.351C206.014 198.761 206.495 199.103 206.944 199.476L206.944 201.75H200.754Z" fill="#231F20"/>
</g>
<mask id="mask6_0_7" style="mask-type:luminance" maskUnits="userSpaceOnUse" x="0" y="88" width="136" height="109">
<path fill-rule="evenodd" clip-rule="evenodd" d="M0.907104 183.886L10.8895 196.124L135.342 95.1369L118.931 88.124" fill="white"/>
</mask>
<g mask="url(#mask6_0_7)">
<path fill-rule="evenodd" clip-rule="evenodd" d="M-17.4854 73.1245C-17.0351 73.6474 -16.6165 74.2034 -16.1284 74.6901C25.9016 116.612 67.9377 158.53 109.971 200.45C110.389 200.868 110.776 201.315 111.178 201.751L103.035 201.751C102.66 201.303 102.317 200.824 101.906 200.414C62.4902 161.099 23.0698 121.79 -16.3551 82.4851C-16.8054 82.036 -17.3237 81.6563 -17.8118 81.2449C-17.8118 78.7481 -17.8193 76.2527 -17.7967 73.7559C-17.7952 73.5449 -17.5942 73.3355 -17.4854 73.1245" fill="#231F20"/>
</g>
<mask id="mask7_0_7" style="mask-type:luminance" maskUnits="userSpaceOnUse" x="0" y="88" width="136" height="109">
<path fill-rule="evenodd" clip-rule="evenodd" d="M0.907104 183.886L10.8895 196.124L135.342 95.1369L118.931 88.124L0.907104 183.886Z" fill="white"/>
</mask>
<g mask="url(#mask7_0_7)">
<path fill-rule="evenodd" clip-rule="evenodd" d="M206.943 191.356C200.557 185.026 194.156 178.709 187.788 172.361C154.893 139.57 122.006 106.771 89.1187 73.9711C88.8542 73.7074 88.623 73.4076 88.3767 73.1243H96.5201C96.8571 73.5341 97.1608 73.9756 97.534 74.3478C133.514 110.236 169.498 146.119 205.488 181.997C205.938 182.445 206.456 182.824 206.943 183.236V191.356Z" fill="#231F20"/>
</g>
<mask id="mask8_0_7" style="mask-type:luminance" maskUnits="userSpaceOnUse" x="0" y="88" width="136" height="109">
<path fill-rule="evenodd" clip-rule="evenodd" d="M0.907104 183.886L10.8895 196.124L135.342 95.1369L118.931 88.124" fill="white"/>
</mask>
<g mask="url(#mask8_0_7)">
<path fill-rule="evenodd" clip-rule="evenodd" d="M-17.8112 89.3652C-11.8468 95.2751 -5.86733 101.17 0.0788879 107.098C31.3634 138.285 62.6404 169.481 93.9159 200.676C94.2589 201.018 94.5672 201.392 94.892 201.751H86.7487C86.4132 201.341 86.1095 200.899 85.7362 200.529C51.6335 166.511 17.5262 132.502 -16.5856 98.4952C-16.9589 98.123 -17.4016 97.8202 -17.8112 97.4856C-17.8112 94.7793 -17.8112 92.0715 -17.8112 89.3652" fill="#231F20"/>
</g>
<mask id="mask9_0_7" style="mask-type:luminance" maskUnits="userSpaceOnUse" x="0" y="88" width="136" height="109">
<path fill-rule="evenodd" clip-rule="evenodd" d="M0.907104 183.886L10.8895 196.124L135.342 95.1369L118.931 88.124L0.907104 183.886Z" fill="white"/>
</mask>
<g mask="url(#mask9_0_7)">
<path fill-rule="evenodd" clip-rule="evenodd" d="M206.943 175.116C206.623 174.829 206.289 174.558 205.985 174.255C172.497 140.866 139.009 107.475 105.526 74.0799C105.223 73.777 104.951 73.444 104.663 73.1245H112.807C113.142 73.5344 113.446 73.9759 113.819 74.3481C144.446 104.899 175.08 135.445 205.717 165.986C206.089 166.358 206.533 166.661 206.943 166.995V175.116Z" fill="#231F20"/>
</g>
<mask id="mask10_0_7" style="mask-type:luminance" maskUnits="userSpaceOnUse" x="0" y="88" width="136" height="109">
<path fill-rule="evenodd" clip-rule="evenodd" d="M0.907104 183.886L10.8895 196.124L135.342 95.1369L118.931 88.124" fill="white"/>
</mask>
<g mask="url(#mask10_0_7)">
<path fill-rule="evenodd" clip-rule="evenodd" d="M-17.8112 105.606C-17.5271 105.852 -17.2279 106.081 -16.9619 106.346C14.649 137.863 46.2569 169.382 77.8633 200.904C78.1278 201.169 78.359 201.467 78.6053 201.75H70.4619C70.1264 201.342 69.8227 200.901 69.451 200.528C40.7776 171.925 12.0983 143.328 -16.5856 114.736C-16.9589 114.364 -17.4016 114.061 -17.8112 113.726C-17.8112 111.02 -17.8112 108.312 -17.8112 105.606" fill="#231F20"/>
</g>
<mask id="mask11_0_7" style="mask-type:luminance" maskUnits="userSpaceOnUse" x="0" y="88" width="136" height="109">
<path fill-rule="evenodd" clip-rule="evenodd" d="M0.907104 183.886L10.8895 196.124L135.342 95.1369L118.931 88.124L0.907104 183.886Z" fill="white"/>
</mask>
<g mask="url(#mask11_0_7)">
<path fill-rule="evenodd" clip-rule="evenodd" d="M206.943 158.875C200.826 152.81 194.695 146.76 188.595 140.678C166.329 118.485 144.072 96.282 121.813 74.0801C121.509 73.7772 121.237 73.4442 120.95 73.1248C123.664 73.1248 126.38 73.1248 129.094 73.1248C129.429 73.5331 129.733 73.9746 130.106 74.3468C155.304 99.4856 180.509 124.618 205.717 149.745C206.091 150.117 206.533 150.42 206.943 150.755V158.875Z" fill="#231F20"/>
</g>
<mask id="mask12_0_7" style="mask-type:luminance" maskUnits="userSpaceOnUse" x="0" y="88" width="136" height="109">
<path fill-rule="evenodd" clip-rule="evenodd" d="M0.907104 183.886L10.8895 196.124L135.342 95.1369L118.931 88.124" fill="white"/>
</mask>
<g mask="url(#mask12_0_7)">
<path fill-rule="evenodd" clip-rule="evenodd" d="M-17.8112 121.846C-11.6942 127.911 -5.56209 133.963 0.539776 140.044C20.7751 160.209 41.0013 180.386 61.229 200.561C61.6083 200.941 61.9559 201.354 62.3185 201.75H54.1752C53.8397 201.342 53.536 200.9 53.1642 200.528C29.9566 177.378 6.74591 154.233 -16.4708 131.094C-16.8833 130.684 -17.3624 130.34 -17.8112 129.967C-17.8112 127.26 -17.8112 124.552 -17.8112 121.846" fill="#231F20"/>
</g>
<mask id="mask13_0_7" style="mask-type:luminance" maskUnits="userSpaceOnUse" x="0" y="88" width="136" height="109">
<path fill-rule="evenodd" clip-rule="evenodd" d="M0.907104 183.886L10.8895 196.124L135.342 95.1369L118.931 88.124" fill="white"/>
</mask>
<g mask="url(#mask13_0_7)">
<path fill-rule="evenodd" clip-rule="evenodd" d="M-17.8112 138.087C-17.5664 138.296 -17.308 138.489 -17.0798 138.715C3.74938 159.481 24.577 180.25 45.4016 201.022C45.6283 201.248 45.8232 201.507 46.0318 201.75H37.8884C37.5922 201.381 37.3263 200.978 36.9923 200.644C19.0992 182.792 1.20164 164.943 -16.702 147.102C-17.0375 146.768 -17.4394 146.504 -17.8112 146.207C-17.8112 143.501 -17.8112 140.793 -17.8112 138.087" fill="#231F20"/>
</g>
<mask id="mask14_0_7" style="mask-type:luminance" maskUnits="userSpaceOnUse" x="0" y="88" width="136" height="109">
<path fill-rule="evenodd" clip-rule="evenodd" d="M0.907104 183.886L10.8895 196.124L135.342 95.1369L118.931 88.124" fill="white"/>
</mask>
<g mask="url(#mask14_0_7)">
<path fill-rule="evenodd" clip-rule="evenodd" d="M-17.8112 154.328C-12.0508 160.037 -6.28138 165.736 -0.533113 171.458C9.28004 181.229 19.0811 191.013 28.8837 200.796C29.1874 201.099 29.4594 201.432 29.745 201.75H21.6016C21.3417 201.418 21.1136 201.055 20.8174 200.76C8.27818 188.245 -4.26707 175.735 -16.8184 163.23C-17.1145 162.935 -17.4787 162.707 -17.8112 162.448C-17.8112 159.742 -17.8112 157.034 -17.8112 154.328" fill="#231F20"/>
</g>
<mask id="mask15_0_7" style="mask-type:luminance" maskUnits="userSpaceOnUse" x="0" y="88" width="136" height="109">
<path fill-rule="evenodd" clip-rule="evenodd" d="M0.907104 183.886L10.8895 196.124L135.342 95.1369L118.931 88.124" fill="white"/>
</mask>
<g mask="url(#mask15_0_7)">
<path fill-rule="evenodd" clip-rule="evenodd" d="M-17.8112 170.568C-13.8475 174.486 -9.86725 178.387 -5.92325 182.325C0.548842 188.788 6.99978 195.275 13.4583 201.75H5.3164C5.09578 201.456 4.9084 201.13 4.65151 200.873C-2.53685 193.694 -9.73125 186.52 -16.9317 179.352C-17.1886 179.096 -17.5165 178.909 -17.8112 178.689C-17.8112 175.982 -17.8112 173.275 -17.8112 170.568" fill="#231F20"/>
</g>
<path fill-rule="evenodd" clip-rule="evenodd" d="M136.564 94.443L180.564 58.0068L160.726 105.007L136.564 94.443Z" fill="#231F20"/>
<path fill-rule="evenodd" clip-rule="evenodd" d="M184.649 33.7176L118.734 87.1995L90.6489 75.1649L120.371 6.19946L184.649 33.7176Z" fill="#231F20"/>
<path fill-rule="evenodd" clip-rule="evenodd" d="M2.12551 183.531L11.1597 194.611L134.107 94.8212L119.26 88.4765L2.12551 183.531ZM10.9405 196.73L0 183.313L119.015 86.7305L137 94.4171L136.031 95.2042L10.9405 196.73Z" fill="#231F20"/>
<path fill-rule="evenodd" clip-rule="evenodd" d="M225.222 0L183.044 34.5875L188.349 36.8891L178.065 61L236.065 13.4366L225.222 0ZM190.317 36.0977L185.909 34.1872L225.006 2.1249L233.958 13.2191L181.851 55.9498L190.317 36.0977Z" fill="#231F20"/>
<path fill-rule="evenodd" clip-rule="evenodd" d="M34.8326 48.136C24.2164 48.136 15.5808 56.7824 15.5808 67.41C15.5808 78.0376 24.2164 86.6825 34.8326 86.6825C45.4488 86.6825 54.0844 78.0376 54.0844 67.41C54.0844 56.7824 45.4488 48.136 34.8326 48.136M34.8326 88.1891C23.3872 88.1891 14.0758 78.8662 14.0758 67.41C14.0758 55.9508 23.3872 46.6294 34.8326 46.6294C46.2781 46.6294 55.5894 55.9508 55.5894 67.41C55.5894 78.8662 46.2781 88.1891 34.8326 88.1891" fill="#231F20"/>
<path fill-rule="evenodd" clip-rule="evenodd" d="M119.765 152.566L111.461 245.977L191.162 143.752L119.765 152.566ZM109.509 250.929L118.373 151.217L118.978 151.145L194.584 141.813L109.509 250.929Z" fill="#231F20"/>
</g>
</svg>
