<svg width="223" height="233" viewBox="0 0 223 233" fill="none" xmlns="http://www.w3.org/2000/svg">
<g opacity="0.400065">
<path fill-rule="evenodd" clip-rule="evenodd" d="M221.581 73.0438C221.581 92.3733 205.687 108.044 186.081 108.044C166.476 108.044 150.581 92.3733 150.581 73.0438C150.581 53.7144 166.476 38.0438 186.081 38.0438C205.687 38.0438 221.581 53.7144 221.581 73.0438Z" fill="#231F20"/>
<path fill-rule="evenodd" clip-rule="evenodd" d="M220.989 148.377L139.99 3.37744L58.9894 148.377H220.989Z" fill="#C5CEBD"/>
<path fill-rule="evenodd" clip-rule="evenodd" d="M57.6234 149.011H221.623L139.624 0.0114746L57.6234 149.011ZM60.1896 147.49L139.624 3.15271L219.057 147.49H60.1896Z" fill="#231F20"/>
<path fill-rule="evenodd" clip-rule="evenodd" d="M186.197 109.843C206.079 109.843 222.197 94.1724 222.197 74.8429C222.197 55.5134 206.079 39.8429 186.197 39.8429C166.316 39.8429 150.197 55.5134 150.197 74.8429C150.197 94.1724 166.316 109.843 186.197 109.843ZM186.197 41.3259C205.237 41.3259 220.672 56.3325 220.672 74.8429C220.672 93.3533 205.237 108.36 186.197 108.36C167.158 108.36 151.723 93.3533 151.723 74.8429C151.723 56.3325 167.158 41.3259 186.197 41.3259Z" fill="#231F20"/>
<path d="M7.15442 19.6958L8.2253 18.6249L221.154 231.554L220.084 232.625L7.15442 19.6958Z" fill="#231F20"/>
<path fill-rule="evenodd" clip-rule="evenodd" d="M78.9158 50.6586C82.5062 50.6586 85.4166 47.9724 85.4166 44.6586C85.4166 41.3448 82.5062 38.6586 78.9158 38.6586C75.3268 38.6586 72.4166 41.345 72.4166 44.6586C72.4166 47.9721 75.3268 50.6586 78.9158 50.6586ZM78.9158 40.1274C81.6273 40.1274 83.8252 42.156 83.8252 44.6586C83.8252 47.1612 81.6273 49.1898 78.9158 49.1898C76.2057 49.1898 74.008 47.161 74.008 44.6586C74.008 42.1562 76.2057 40.1274 78.9158 40.1274Z" fill="#231F20"/>
<path fill-rule="evenodd" clip-rule="evenodd" d="M136.981 149.004L86.1352 98.0042L57.9811 149.004H136.981ZM133.33 147.487H60.547L86.4856 100.501L133.33 147.487Z" fill="#231F20"/>
<path d="M0.769531 108.597L5.53814 64.5519L7.07128 64.7076L2.47651 107.147L42.6346 108.181L22.5049 147.109L60.7695 172.317L59.9026 173.552L20.5224 147.609L40.1709 109.612L0.769531 108.597Z" fill="#231F20"/>
<path fill-rule="evenodd" clip-rule="evenodd" d="M121.921 191.019C121.921 199.856 114.982 207.019 106.422 207.019C97.8605 207.019 90.9211 199.856 90.9211 191.019C90.9211 182.183 97.8605 175.019 106.422 175.019C114.982 175.019 121.921 182.183 121.921 191.019Z" fill="#231F20"/>
</g>
</svg>
